<svg width="167" height="39" viewBox="0 0 167 39" fill="none" xmlns="http://www.w3.org/2000/svg">
<path d="M64.96 12.2067V26.1667H62.16V20.2267H56.18V26.1667H53.38V12.2067H56.18V17.9467H62.16V12.2067H64.96ZM78.0159 20.3867C78.0159 20.7867 77.9893 21.1467 77.9359 21.4667H69.8359C69.9026 22.2667 70.1826 22.8934 70.6759 23.3467C71.1693 23.8001 71.7759 24.0267 72.4959 24.0267C73.5359 24.0267 74.2759 23.5801 74.7159 22.6867H77.7359C77.4159 23.7534 76.8026 24.6334 75.8959 25.3267C74.9893 26.0067 73.8759 26.3467 72.5559 26.3467C71.4893 26.3467 70.5293 26.1134 69.6759 25.6467C68.8359 25.1667 68.1759 24.4934 67.6959 23.6267C67.2293 22.7601 66.9959 21.7601 66.9959 20.6267C66.9959 19.4801 67.2293 18.4734 67.6959 17.6067C68.1626 16.7401 68.8159 16.0734 69.6559 15.6067C70.4959 15.1401 71.4626 14.9067 72.5559 14.9067C73.6093 14.9067 74.5493 15.1334 75.3759 15.5867C76.2159 16.0401 76.8626 16.6867 77.3159 17.5267C77.7826 18.3534 78.0159 19.3067 78.0159 20.3867ZM75.1159 19.5867C75.1026 18.8667 74.8426 18.2934 74.3359 17.8667C73.8293 17.4267 73.2093 17.2067 72.4759 17.2067C71.7826 17.2067 71.1959 17.4201 70.7159 17.8467C70.2493 18.2601 69.9626 18.8401 69.8559 19.5867H75.1159ZM79.3397 20.5867C79.3397 19.4667 79.5597 18.4734 79.9997 17.6067C80.453 16.7401 81.0597 16.0734 81.8197 15.6067C82.593 15.1401 83.453 14.9067 84.3997 14.9067C85.2264 14.9067 85.9464 15.0734 86.5597 15.4067C87.1864 15.7401 87.6864 16.1601 88.0597 16.6667V15.0867H90.8797V26.1667H88.0597V24.5467C87.6997 25.0667 87.1997 25.5001 86.5597 25.8467C85.933 26.1801 85.2064 26.3467 84.3797 26.3467C83.4464 26.3467 82.593 26.1067 81.8197 25.6267C81.0597 25.1467 80.453 24.4734 79.9997 23.6067C79.5597 22.7267 79.3397 21.7201 79.3397 20.5867ZM88.0597 20.6267C88.0597 19.9467 87.9264 19.3667 87.6597 18.8867C87.393 18.3934 87.033 18.0201 86.5797 17.7667C86.1264 17.5001 85.6397 17.3667 85.1197 17.3667C84.5997 17.3667 84.1197 17.4934 83.6797 17.7467C83.2397 18.0001 82.8797 18.3734 82.5997 18.8667C82.333 19.3467 82.1997 19.9201 82.1997 20.5867C82.1997 21.2534 82.333 21.8401 82.5997 22.3467C82.8797 22.8401 83.2397 23.2201 83.6797 23.4867C84.133 23.7534 84.613 23.8867 85.1197 23.8867C85.6397 23.8867 86.1264 23.7601 86.5797 23.5067C87.033 23.2401 87.393 22.8667 87.6597 22.3867C87.9264 21.8934 88.0597 21.3067 88.0597 20.6267ZM96.4144 11.3667V26.1667H93.6144V11.3667H96.4144ZM102.441 17.3867V22.7467C102.441 23.1201 102.527 23.3934 102.701 23.5667C102.887 23.7267 103.194 23.8067 103.621 23.8067H104.921V26.1667H103.161C100.801 26.1667 99.6208 25.0201 99.6208 22.7267V17.3867H98.3008V15.0867H99.6208V12.3467H102.441V15.0867H104.921V17.3867H102.441ZM113.175 14.9267C114.015 14.9267 114.761 15.1134 115.415 15.4867C116.068 15.8467 116.575 16.3867 116.935 17.1067C117.308 17.8134 117.495 18.6667 117.495 19.6667V26.1667H114.695V20.0467C114.695 19.1667 114.475 18.4934 114.035 18.0267C113.595 17.5467 112.995 17.3067 112.235 17.3067C111.461 17.3067 110.848 17.5467 110.395 18.0267C109.955 18.4934 109.735 19.1667 109.735 20.0467V26.1667H106.935V11.3667H109.735V16.4667C110.095 15.9867 110.575 15.6134 111.175 15.3467C111.775 15.0667 112.441 14.9267 113.175 14.9267ZM122.957 14.4667V17.9667H127.657V20.1867H122.957V23.8867H128.257V26.1667H120.157V12.1867H128.257V14.4667H122.957ZM130.082 20.5867C130.082 19.4667 130.302 18.4734 130.742 17.6067C131.195 16.7401 131.802 16.0734 132.562 15.6067C133.335 15.1401 134.195 14.9067 135.142 14.9067C135.969 14.9067 136.689 15.0734 137.302 15.4067C137.929 15.7401 138.429 16.1601 138.802 16.6667V15.0867H141.622V26.1667H138.802V24.5467C138.442 25.0667 137.942 25.5001 137.302 25.8467C136.675 26.1801 135.949 26.3467 135.122 26.3467C134.189 26.3467 133.335 26.1067 132.562 25.6267C131.802 25.1467 131.195 24.4734 130.742 23.6067C130.302 22.7267 130.082 21.7201 130.082 20.5867ZM138.802 20.6267C138.802 19.9467 138.669 19.3667 138.402 18.8867C138.135 18.3934 137.775 18.0201 137.322 17.7667C136.869 17.5001 136.382 17.3667 135.862 17.3667C135.342 17.3667 134.862 17.4934 134.422 17.7467C133.982 18.0001 133.622 18.3734 133.342 18.8667C133.075 19.3467 132.942 19.9201 132.942 20.5867C132.942 21.2534 133.075 21.8401 133.342 22.3467C133.622 22.8401 133.982 23.2201 134.422 23.4867C134.875 23.7534 135.355 23.8867 135.862 23.8867C136.382 23.8867 136.869 23.7601 137.322 23.5067C137.775 23.2401 138.135 22.8667 138.402 22.3867C138.669 21.8934 138.802 21.3067 138.802 20.6267ZM148.597 26.3467C147.69 26.3467 146.877 26.1867 146.157 25.8667C145.437 25.5334 144.863 25.0867 144.437 24.5267C144.023 23.9667 143.797 23.3467 143.757 22.6667H146.577C146.63 23.0934 146.837 23.4467 147.197 23.7267C147.57 24.0067 148.03 24.1467 148.577 24.1467C149.11 24.1467 149.523 24.0401 149.817 23.8267C150.123 23.6134 150.277 23.3401 150.277 23.0067C150.277 22.6467 150.09 22.3801 149.717 22.2067C149.357 22.0201 148.777 21.8201 147.977 21.6067C147.15 21.4067 146.47 21.2001 145.937 20.9867C145.417 20.7734 144.963 20.4467 144.577 20.0067C144.203 19.5667 144.017 18.9734 144.017 18.2267C144.017 17.6134 144.19 17.0534 144.537 16.5467C144.897 16.0401 145.403 15.6401 146.057 15.3467C146.723 15.0534 147.503 14.9067 148.397 14.9067C149.717 14.9067 150.77 15.2401 151.557 15.9067C152.343 16.5601 152.777 17.4467 152.857 18.5667H150.177C150.137 18.1267 149.95 17.7801 149.617 17.5267C149.297 17.2601 148.863 17.1267 148.317 17.1267C147.81 17.1267 147.417 17.2201 147.137 17.4067C146.87 17.5934 146.737 17.8534 146.737 18.1867C146.737 18.5601 146.923 18.8467 147.297 19.0467C147.67 19.2334 148.25 19.4267 149.037 19.6267C149.837 19.8267 150.497 20.0334 151.017 20.2467C151.537 20.4601 151.983 20.7934 152.357 21.2467C152.743 21.6867 152.943 22.2734 152.957 23.0067C152.957 23.6467 152.777 24.2201 152.417 24.7267C152.07 25.2334 151.563 25.6334 150.897 25.9267C150.243 26.2067 149.477 26.3467 148.597 26.3467ZM165.555 20.3867C165.555 20.7867 165.528 21.1467 165.475 21.4667H157.375C157.442 22.2667 157.722 22.8934 158.215 23.3467C158.708 23.8001 159.315 24.0267 160.035 24.0267C161.075 24.0267 161.815 23.5801 162.255 22.6867H165.275C164.955 23.7534 164.342 24.6334 163.435 25.3267C162.528 26.0067 161.415 26.3467 160.095 26.3467C159.028 26.3467 158.068 26.1134 157.215 25.6467C156.375 25.1667 155.715 24.4934 155.235 23.6267C154.768 22.7601 154.535 21.7601 154.535 20.6267C154.535 19.4801 154.768 18.4734 155.235 17.6067C155.702 16.7401 156.355 16.0734 157.195 15.6067C158.035 15.1401 159.002 14.9067 160.095 14.9067C161.148 14.9067 162.088 15.1334 162.915 15.5867C163.755 16.0401 164.402 16.6867 164.855 17.5267C165.322 18.3534 165.555 19.3067 165.555 20.3867ZM162.655 19.5867C162.642 18.8667 162.382 18.2934 161.875 17.8667C161.368 17.4267 160.748 17.2067 160.015 17.2067C159.322 17.2067 158.735 17.4201 158.255 17.8467C157.788 18.2601 157.502 18.8401 157.395 19.5867H162.655Z" fill="#3386AF"/>
<path d="M15.3943 36.1463C15.556 36.9182 15.3943 38.1668 15.3943 38.1668H17.7446C17.7446 38.1668 17.6154 35.8963 17.0395 34.6012C16.4748 33.3313 16.0446 32.558 14.9243 31.7487C13.2791 30.5601 12.1726 30.3555 10.4587 29.3716C8.91869 28.4874 7.89958 28.1898 6.58078 26.9945C5.43854 25.9592 4.92718 25.219 4.11299 23.9043C3.15326 22.3547 2.66639 21.4007 2.23276 19.6255C2.02104 18.7588 1.99774 17.9616 1.99774 17.4862C1.99774 16.961 2.32426 16.5715 2.82033 16.4165C3.31056 16.2633 3.97594 16.679 4.2305 17.1296C4.70056 17.9616 5.0531 19.1501 5.0531 19.1501C5.0531 19.1501 5.57388 20.944 6.11072 22.0026C6.5059 22.7819 6.72299 23.2388 7.28586 23.9043C7.94285 24.6811 8.45406 24.9843 9.2836 25.5683C10.1946 26.2096 10.7618 26.4859 11.7514 26.9945C12.4286 27.3426 12.7582 27.75 13.5141 27.8265C14.6892 27.9454 14.8068 27.2322 14.8068 27.2322C14.8068 27.2322 14.9243 26.8757 14.6892 26.4002C14.3551 25.7244 13.2791 25.0928 13.2791 25.0928C13.2791 25.0928 11.9779 24.3897 11.1638 23.9043C10.5604 23.5445 10.1346 23.4513 9.63614 22.9535C9.30958 22.6273 9.20192 22.4162 9.16608 22.0026L9.16489 21.9889C9.14109 21.7148 9.12378 21.5153 9.2836 21.2895C9.52986 20.9415 10.0357 20.942 10.4587 20.9329C10.8817 20.9238 12.2214 21.6461 12.2214 21.6461C12.2214 21.6461 13.5469 22.3099 14.3367 22.8346C15.2652 23.4515 15.7186 23.8951 16.5695 24.6174C17.4656 25.3782 18.0885 25.7003 18.8022 26.638C19.3787 27.3953 19.8957 28.1242 20.3299 29.015C20.7819 29.9424 20.8645 30.2536 21.1525 31.2733C21.3875 32.1053 21.4197 32.6067 21.505 33.4127C21.5784 34.1049 21.6129 34.6182 21.6226 35.3143C21.6393 36.5219 21.505 38.1668 21.505 38.1668H23.495C23.495 38.1668 23.3607 36.5219 23.3774 35.3143C23.3871 34.6182 23.4216 34.1049 23.495 33.4127C23.5803 32.6067 23.6125 32.1053 23.8475 31.2733L23.8706 31.1914C24.1403 30.2362 24.2304 29.9171 24.6701 29.015C25.1043 28.1242 25.6213 27.3953 26.1978 26.638C26.9115 25.7003 27.5344 25.3782 28.4306 24.6174C29.2815 23.8951 29.7348 23.4515 30.6633 22.8346C31.4531 22.3099 32.7786 21.6461 32.7786 21.6461C32.7786 21.6461 34.1183 20.9238 34.5413 20.9329C34.9643 20.942 35.4701 20.9415 35.7164 21.2895C35.8762 21.5153 35.8589 21.7148 35.8351 21.9889L35.8339 22.0026C35.7981 22.4162 35.6904 22.6274 35.3639 22.9535C34.8654 23.4513 34.4396 23.5445 33.8362 23.9043C33.0221 24.3897 31.7209 25.0928 31.7209 25.0928C31.7209 25.0928 30.6449 25.7244 30.3108 26.4002C30.0757 26.8757 30.1933 27.2322 30.1933 27.2322C30.1933 27.2322 30.3108 27.9454 31.4859 27.8265C32.2418 27.75 32.5714 27.3426 33.2486 26.9945C34.2382 26.4859 34.8054 26.2096 35.7164 25.5683C36.5459 24.9843 37.0572 24.6811 37.7141 23.9043C38.277 23.2388 38.4941 22.7819 38.8893 22.0026C39.4261 20.944 39.9469 19.1501 39.9469 19.1501C39.9469 19.1501 40.2994 17.9616 40.7695 17.1296C41.0241 16.679 41.6894 16.2633 42.1797 16.4165C42.6757 16.5715 43.0023 16.961 43.0023 17.4862C43.0023 17.9616 42.979 18.7588 42.7672 19.6255C42.3336 21.4007 41.8467 22.3547 40.887 23.9043C40.0728 25.219 39.5615 25.9592 38.4192 26.9945C37.1004 28.1898 36.0813 28.4874 34.5413 29.3716C32.8274 30.3555 31.7209 30.5601 30.0757 31.7487C28.9554 32.5581 28.5252 33.3313 27.9605 34.6012C27.3846 35.8963 27.2554 38.1668 27.2554 38.1668H29.6057C29.6057 38.1668 29.444 36.9182 29.6057 36.1463C29.7844 35.2932 30.0013 34.8019 30.5458 34.1258C31.3762 33.0946 32.3351 33.1093 33.4837 32.4618C34.3091 31.9965 34.776 31.7432 35.5989 31.2733C35.5989 31.2733 37.9413 30.1529 39.2418 29.1339C40.653 28.0282 41.4007 27.2918 42.4147 25.806C43.068 24.8487 43.3773 24.2626 43.8249 23.1912C44.2372 22.2041 44.4383 21.6269 44.6475 20.5764C44.8746 19.4352 45 18.7936 45 17.605C45 16.9486 44.8993 16.4272 44.6475 15.8222C44.3073 15.0049 43.9123 14.6563 43.1198 14.2771C42.2072 13.8404 41.4121 13.7723 40.5345 14.2771C39.7599 14.7226 39.2418 16.1788 39.2418 16.1788L38.0667 18.6747L37.1266 20.5764L36.8916 21.0518C36.8916 21.0518 36.9851 20.5307 36.8916 20.2198C36.8136 19.9609 36.7134 19.8308 36.539 19.6255C36.3475 19.4001 35.9854 19.2697 35.7164 19.1501C35.7164 19.1501 35.0738 19.0092 34.6588 19.0313C34.2402 19.0535 34.0069 19.1322 33.6123 19.2652L33.6012 19.269C32.8961 19.5067 31.8384 19.9821 31.8384 19.9821C31.8384 19.9821 30.7911 20.4485 30.0757 20.8141C29.4153 21.1516 28.4306 21.7649 28.4306 21.7649C28.4306 21.7649 27.21 22.5457 26.5503 23.1912C26.1532 23.5798 25.9516 23.7503 25.4927 24.2609C25.0338 24.7714 24.9051 24.974 24.4351 25.5683C23.965 26.1625 23.495 26.9945 23.495 26.9945C23.495 26.9945 22.9642 28.068 22.6724 28.7773L22.5548 29.4905L22.4452 29.4905L22.3276 28.7773C22.0358 28.068 21.505 26.9945 21.505 26.9945C21.505 26.9945 21.035 26.1625 20.5649 25.5683C20.0949 24.974 19.9662 24.7714 19.5073 24.2609C19.0484 23.7503 18.8469 23.5798 18.4497 23.1912C17.79 22.5457 16.5695 21.7649 16.5695 21.7649C16.5695 21.7649 15.5847 21.1516 14.9243 20.8141C14.2089 20.4485 13.1616 19.9821 13.1616 19.9821C13.1616 19.9821 12.1039 19.5067 11.3988 19.269L11.3877 19.2652C10.9931 19.1322 10.7598 19.0535 10.3412 19.0313C9.92623 19.0092 9.2836 19.1501 9.2836 19.1501C9.01459 19.2697 8.6525 19.4001 8.46099 19.6255C8.2866 19.8308 8.18637 19.9609 8.10845 20.2198C8.01492 20.5306 8.10845 21.0518 8.10845 21.0518L7.87342 20.5764L6.93331 18.6747L5.75817 16.1788C5.75817 16.1788 5.2401 14.7226 4.46552 14.2771C3.58788 13.7723 2.79285 13.8404 1.88022 14.2771C1.08768 14.6563 0.692729 15.0049 0.352539 15.8222C0.10072 16.4272 1.52916e-06 16.9486 0 17.605C-2.76866e-06 18.7936 0.125358 19.4352 0.352535 20.5764C0.561658 21.6269 0.76277 22.2041 1.17513 23.1912C1.62274 24.2626 1.93201 24.8487 2.5853 25.806C3.59932 27.2918 4.34702 28.0282 5.75817 29.1339C7.05866 30.1529 9.4011 31.2733 9.4011 31.2733C10.224 31.7432 10.6909 31.9965 11.5164 32.4618C12.6649 33.1093 13.6238 33.0946 14.4542 34.1258C14.9987 34.8019 15.2156 35.2932 15.3943 36.1463Z" fill="#3386AF"/>
<path d="M22.9712 3.94207C21.6214 1.6232 19.3717 0 16.6722 0C12.8478 0 9.92322 3.01452 9.92322 6.95659C9.92322 14.6088 13.9726 15.7683 22.9712 24.58C31.9697 15.7683 36.0191 14.6088 36.0191 6.95659C36.0191 3.01452 33.0946 0 29.2702 0C26.5706 0 24.3209 1.6232 22.9712 3.94207Z" fill="#3386AF"/>
</svg>
